# xmcd
#
# Track frame offsets:
#	150
#	12275
#	26555
#	42192
#	53602
#	67600
#	80092
#	92435
#	106510
#	118172
#	130957
#	144505
#	159137
#	171237
#
# Disc length: 2427 seconds
#
# Revision: 0
# Processed by: cddbd v1.4PL0 Copyright (c) Steve Scherf et al.
# Submitted via: EasyCDDAExtractor 5.0.5.1
#
DISCID=a309790e
DTITLE=Perry Como - Como's Golden Records
DYEAR=1992
DGENRE=Pop
TTITLE0=Don't Let The Stars Get In Your Eyes
TTITLE1=Till The End of Time
TTITLE2=Prisoner of Love
TTITLE3=Catch a Falling Star
TTITLE4=A Hubba-Hubba-Hubba
TTITLE5=Temptation
TTITLE6=Papa Loves Mambo
TTITLE7=Wanted
TTITLE8=Round and Round
TTITLE9=Because
TTITLE10=Mi Casa, Su Casa
TTITLE11=When You Were Sweet Sixteen
TTITLE12=Magic Moments
TTITLE13=Hot Diggity
EXTD=
EXTT0=
EXTT1=
EXTT2=
EXTT3=
EXTT4=
EXTT5=
EXTT6=
EXTT7=
EXTT8=
EXTT9=
EXTT10=
EXTT11=
EXTT12=
EXTT13=
PLAYORDER=
